<svg xmlns="http://www.w3.org/2000/svg" viewBox="0 0 387.7783 339.4929">
  <defs>
    <style>
      .cls-1 {
        fill: #f5f5f5;
      }

      .cls-2 {
        fill: #263238;
      }

      .cls-15, .cls-3 {
        fill: #407bff;
      }

      .cls-12, .cls-4 {
        isolation: isolate;
      }

      .cls-4 {
        opacity: 0.6;
      }

      .cls-11, .cls-14, .cls-5, .cls-8 {
        fill: #fff;
      }

      .cls-10, .cls-12, .cls-6 {
        opacity: 0.2;
      }

      .cls-11, .cls-7 {
        opacity: 0.3;
      }

      .cls-8 {
        opacity: 0.7;
      }

      .cls-9 {
        fill: #e8bfbf;
      }

      .cls-13 {
        fill: #ed847e;
      }

      .cls-14, .cls-15, .cls-16, .cls-17 {
        opacity: 0.1;
      }

      .cls-18 {
        fill: none;
        stroke: #407bff;
        stroke-miterlimit: 10;
        stroke-width: 1.3px;
      }
    </style>
  </defs>
  <g id="Shadow">
    <ellipse id="_Path_" data-name="&lt;Path&gt;" class="cls-1" cx="193.8892" cy="328.1695" rx="193.8892" ry="11.3234"/>
  </g>
  <g id="Plant">
    <g>
      <g>
        <g>
          <path class="cls-2" d="M120.783,376.7726a.6394.6394,0,0,1-.5968-.6544c.74-29.39,2.2561-77.6017,2.3353-77.8655a.6391.6391,0,0,1,1.2254.3638c-.0192.0649-1.55,48.4443-2.283,77.5348a.64.64,0,0,1-.6548.623Z" transform="translate(-56.1108 -87.5231)"/>
          <g>
            <g>
              <path class="cls-3" d="M116.8328,278.631c.2462,2.2638,2.9563,10.1114,5.22,9.8654s3.2234-8.4929,2.9772-10.7566a4.1229,4.1229,0,1,0-8.1975.8912Z" transform="translate(-56.1108 -87.5231)"/>
              <path class="cls-3" d="M127.8194,303.3855c-.2464-2.2636-2.9561-10.1112-5.22-9.8646s-3.2239,8.4927-2.9775,10.7566a4.1228,4.1228,0,1,0,8.1973-.892Z" transform="translate(-56.1108 -87.5231)"/>
              <path class="cls-3" d="M109.9488,296.5016c2.264-.2458,10.1111-2.9562,9.8649-5.22s-8.4926-3.2233-10.7564-2.9771a4.1228,4.1228,0,0,0,.8915,8.1973Z" transform="translate(-56.1108 -87.5231)"/>
              <path class="cls-3" d="M134.7032,285.5153c-2.2639.2462-10.1109,2.9562-9.8651,5.22s8.493,3.2237,10.7568,2.9773a4.1227,4.1227,0,1,0-.8917-8.1971Z" transform="translate(-56.1108 -87.5231)"/>
              <path class="cls-3" d="M109.6894,286.1409c1.7751,1.4265,9.24,5.06,10.667,3.2846s-3.7257-8.2851-5.5-9.7115a4.1231,4.1231,0,0,0-5.1666,6.4269Z" transform="translate(-56.1108 -87.5231)"/>
              <path class="cls-3" d="M134.9624,295.8761c-1.7745-1.4266-9.24-5.0592-10.6667-3.2841s3.726,8.2843,5.5007,9.7111a4.1229,4.1229,0,0,0,5.166-6.427Z" transform="translate(-56.1108 -87.5231)"/>
              <path class="cls-3" d="M117.4586,303.6449c1.4264-1.7749,5.0592-9.24,3.2839-10.6666s-8.2841,3.7256-9.7111,5.5006a4.123,4.123,0,0,0,6.4272,5.166Z" transform="translate(-56.1108 -87.5231)"/>
              <path class="cls-3" d="M127.1938,278.3724c-1.4264,1.7747-5.0594,9.24-3.2844,10.6666s8.2848-3.726,9.7112-5.5009a4.1227,4.1227,0,1,0-6.4268-5.1657Z" transform="translate(-56.1108 -87.5231)"/>
            </g>
            <g class="cls-4">
              <path class="cls-5" d="M116.8328,278.631c.2462,2.2638,2.9563,10.1114,5.22,9.8654s3.2234-8.4929,2.9772-10.7566a4.1229,4.1229,0,1,0-8.1975.8912Z" transform="translate(-56.1108 -87.5231)"/>
              <path class="cls-5" d="M127.8194,303.3855c-.2464-2.2636-2.9561-10.1112-5.22-9.8646s-3.2239,8.4927-2.9775,10.7566a4.1228,4.1228,0,1,0,8.1973-.892Z" transform="translate(-56.1108 -87.5231)"/>
              <path class="cls-5" d="M109.9488,296.5016c2.264-.2458,10.1111-2.9562,9.8649-5.22s-8.4926-3.2233-10.7564-2.9771a4.1228,4.1228,0,0,0,.8915,8.1973Z" transform="translate(-56.1108 -87.5231)"/>
              <path class="cls-5" d="M134.7032,285.5153c-2.2639.2462-10.1109,2.9562-9.8651,5.22s8.493,3.2237,10.7568,2.9773a4.1227,4.1227,0,1,0-.8917-8.1971Z" transform="translate(-56.1108 -87.5231)"/>
              <path class="cls-5" d="M109.6894,286.1409c1.7751,1.4265,9.24,5.06,10.667,3.2846s-3.7257-8.2851-5.5-9.7115a4.1231,4.1231,0,0,0-5.1666,6.4269Z" transform="translate(-56.1108 -87.5231)"/>
              <path class="cls-5" d="M134.9624,295.8761c-1.7745-1.4266-9.24-5.0592-10.6667-3.2841s3.726,8.2843,5.5007,9.7111a4.1229,4.1229,0,0,0,5.166-6.427Z" transform="translate(-56.1108 -87.5231)"/>
              <path class="cls-5" d="M117.4586,303.6449c1.4264-1.7749,5.0592-9.24,3.2839-10.6666s-8.2841,3.7256-9.7111,5.5006a4.123,4.123,0,0,0,6.4272,5.166Z" transform="translate(-56.1108 -87.5231)"/>
              <path class="cls-5" d="M127.1938,278.3724c-1.4264,1.7747-5.0594,9.24-3.2844,10.6666s8.2848-3.726,9.7112-5.5009a4.1227,4.1227,0,1,0-6.4268-5.1657Z" transform="translate(-56.1108 -87.5231)"/>
            </g>
            <path class="cls-3" d="M117.4722,291.5363a4.8827,4.8827,0,1,0,4.3258-5.3819A4.8824,4.8824,0,0,0,117.4722,291.5363Z" transform="translate(-56.1108 -87.5231)"/>
          </g>
        </g>
        <g>
          <path class="cls-3" d="M117.9524,355.2381c-5.6342.1236-15.2741-5.0809-19.0672-10.1606-3.8491-5.1546,6.9453-1.9814,5.8259-6.0344s-14.4082-1.0162-16.879-6.8193,7.1265-4.4954,6.7374-7.4642-10.3268-2.3361-13.5357-8.5025,5.544-2.7325,4.1643-5.2882-12.37-13.2972-7.79-15.5563,14.8849,8.9314,18.33,10.1738,4.2272-6.5107,8.7163-2.8166,1.1849,19.9059,6.4631,22.0284c3.9311,1.5806,2.239-5.8327,6.7652-3.9737C125.6055,324.0783,120.24,355.1877,117.9524,355.2381Z" transform="translate(-56.1108 -87.5231)"/>
          <g class="cls-6">
            <path class="cls-5" d="M117.9524,355.2381c-5.6342.1236-15.2741-5.0809-19.0672-10.1606-3.8491-5.1546,6.9453-1.9814,5.8259-6.0344s-14.4082-1.0162-16.879-6.8193,7.1265-4.4954,6.7374-7.4642-10.3268-2.3361-13.5357-8.5025,5.544-2.7325,4.1643-5.2882-12.37-13.2972-7.79-15.5563,14.8849,8.9314,18.33,10.1738,4.2272-6.5107,8.7163-2.8166,1.1849,19.9059,6.4631,22.0284c3.9311,1.5806,2.239-5.8327,6.7652-3.9737C125.6055,324.0783,120.24,355.1877,117.9524,355.2381Z" transform="translate(-56.1108 -87.5231)"/>
          </g>
        </g>
        <g>
          <path class="cls-3" d="M126.049,348.089c.0943.1577-.7486.9568,2.0327,1.0716,6.85.282,18.9644-.18,23.5131-6.4089,6.4946-8.8932-8.4847-8.0765-7.028-12.9809s17.5491-.8993,20.69-7.9-8.5634-5.6344-8.0207-9.2364,12.8229,1.0652,16.87-6.3606-6.68-3.4532-4.9416-6.53,15.3564-15.885,9.8392-18.74S160.69,291.52,156.47,292.9506s-5.1961-11.684-10.7432-7.2953-1.9066,24.1853-8.3762,26.6434c-4.8186,1.8309-2.19-5.2643-8.1363-4.9917C121.1365,307.6777,118.48,335.4357,126.049,348.089Z" transform="translate(-56.1108 -87.5231)"/>
          <g class="cls-7">
            <path class="cls-5" d="M126.049,348.089c.0943.1577-.7486.9568,2.0327,1.0716,6.85.282,18.9644-.18,23.5131-6.4089,6.4946-8.8932-8.4847-8.0765-7.028-12.9809s17.5491-.8993,20.69-7.9-8.5634-5.6344-8.0207-9.2364,12.8229,1.0652,16.87-6.3606-6.68-3.4532-4.9416-6.53,15.3564-15.885,9.8392-18.74S160.69,291.52,156.47,292.9506s-5.1961-11.684-10.7432-7.2953-1.9066,24.1853-8.3762,26.6434c-4.8186,1.8309-2.19-5.2643-8.1363-4.9917C121.1365,307.6777,118.48,335.4357,126.049,348.089Z" transform="translate(-56.1108 -87.5231)"/>
          </g>
        </g>
        <g>
          <g>
            <path class="cls-2" d="M120.9151,372.3319c-.0121-.0005-.0239-.0019-.0366-.0032a.4446.4446,0,0,1-.3879-.4957c5.623-46.0163,32.13-64.72,32.3964-64.9033a.4454.4454,0,0,1,.5046.7342c-.2638.1815-26.4452,18.6832-32.0164,64.2768A.446.446,0,0,1,120.9151,372.3319Z" transform="translate(-56.1108 -87.5231)"/>
            <path class="cls-2" d="M146.8549,313.3228a.4456.4456,0,0,1-.12-.8688c.1649-.0539,4.1122-1.3024,10.5794.0708a.4456.4456,0,1,1-.1846.8719c-6.2152-1.3181-10.0813-.1069-10.1191-.0955A.4342.4342,0,0,1,146.8549,313.3228Z" transform="translate(-56.1108 -87.5231)"/>
            <path class="cls-2" d="M141.9554,318.912a.4451.4451,0,0,1-.4269-.4406c-.1372-13.9167,7.9191-24.79,8.0007-24.8984a.4455.4455,0,0,1,.7121.5356c-.08.1059-7.9559,10.7488-7.8217,24.3539a.4456.4456,0,0,1-.4411.45C141.9705,318.9125,141.9631,318.9122,141.9554,318.912Z" transform="translate(-56.1108 -87.5231)"/>
            <path class="cls-2" d="M134.0615,330.6909a.446.446,0,0,1-.2878-.7694c.06-.0559,6.0243-5.57,13.8337-2.7716a.4458.4458,0,0,1-.3007.8394c-7.3013-2.6187-12.8664,2.528-12.9212,2.5808A.4479.4479,0,0,1,134.0615,330.6909Z" transform="translate(-56.1108 -87.5231)"/>
            <path class="cls-2" d="M129.9347,338.9075a.4451.4451,0,0,1-.3912-.27c-.1252-.2923-3.0458-7.2893-1.4363-17.258a.4385.4385,0,0,1,.511-.3684.445.445,0,0,1,.3686.5105,33.237,33.237,0,0,0,1.3759,16.7665.4455.4455,0,0,1-.2351.5841A.4406.4406,0,0,1,129.9347,338.9075Z" transform="translate(-56.1108 -87.5231)"/>
          </g>
          <g>
            <path class="cls-2" d="M121.094,388.7689a.4458.4458,0,0,1-.4265-.4311L120.09,376.15c-1.7055-40.5248-29.503-68.088-29.7836-68.3614a.4454.4454,0,0,1,.6217-.6381c.2829.2763,28.3315,28.0742,30.0519,68.9672l.578,12.1926a.4458.4458,0,0,1-.431.4595C121.1158,388.77,121.1049,388.7693,121.094,388.7689Z" transform="translate(-56.1108 -87.5231)"/>
            <path class="cls-2" d="M101.7707,323.0119a.4217.4217,0,0,1-.0733-.009.5193.5193,0,0,1-.13-.05l-.1436-.0582a28.8938,28.8938,0,0,0-11.4471-2.2143.438.438,0,0,1-.4552-.4357.4452.4452,0,0,1,.4351-.4551,29.833,29.833,0,0,1,11.8092,2.2822l.1481.061a.5095.5095,0,0,1,.0765.0361.4458.4458,0,0,1-.22.8426Z" transform="translate(-56.1108 -87.5231)"/>
            <path class="cls-2" d="M105.702,328.2311l-.0222-.0017a.4452.4452,0,0,1-.4038-.4833c1.0764-11.9612-5.1183-21.8023-5.181-21.9a.4454.4454,0,1,1,.75-.48c.0641.1,6.4225,10.187,5.3181,22.46A.4455.4455,0,0,1,105.702,328.2311Z" transform="translate(-56.1108 -87.5231)"/>
            <path class="cls-2" d="M109.7582,335.16a.4477.4477,0,0,1-.2981-.1314A12.11,12.11,0,0,0,98.295,332.288a.4455.4455,0,1,1-.2293-.861,12.7781,12.7781,0,0,1,12.0284,2.9756.4453.4453,0,0,1-.3359.7577Z" transform="translate(-56.1108 -87.5231)"/>
            <path class="cls-2" d="M114.9074,346.58a.4512.4512,0,0,1-.1882-.05.4459.4459,0,0,1-.1884-.6009,29.4224,29.4224,0,0,0,2.3926-14.665.4445.4445,0,0,1,.4081-.4795.4371.4371,0,0,1,.48.4079,29.7342,29.7342,0,0,1-2.4909,15.1495A.4452.4452,0,0,1,114.9074,346.58Z" transform="translate(-56.1108 -87.5231)"/>
          </g>
        </g>
      </g>
      <g>
        <path class="cls-3" d="M146.1568,390.6882c0,14.2144-6.3926,25.7423-25.7542,25.7423-18.4783,0-25.7539-11.5279-25.7539-25.7423a25.6708,25.6708,0,0,1,4.45-14.4713h42.6079A25.67,25.67,0,0,1,146.1568,390.6882Z" transform="translate(-56.1108 -87.5231)"/>
        <path class="cls-8" d="M146.1568,390.6882c0,14.2144-6.3926,25.7423-25.7542,25.7423-18.4783,0-25.7539-11.5279-25.7539-25.7423a25.6708,25.6708,0,0,1,4.45-14.4713h42.6079A25.67,25.67,0,0,1,146.1568,390.6882Z" transform="translate(-56.1108 -87.5231)"/>
      </g>
    </g>
  </g>
  <g id="Character">
    <g>
      <g>
        <g>
          <g>
            <g>
              <g>
                <polygon class="cls-9" points="237.99 316.34 247.951 314.886 245.435 291.584 235.474 293.039 237.99 316.34"/>
                <g>
                  <path class="cls-3" d="M311.7187,402.7578a3.8277,3.8277,0,0,0,2.32-1.0082,1.3315,1.3315,0,0,0,.23-1.216.7681.7681,0,0,0-.5-.564c-1.3308-.4753-4.9737,2.2094-5.3808,2.5116a.2588.2588,0,0,0-.0881.2652.2372.2372,0,0,0,.223.1575A17.469,17.469,0,0,0,311.7187,402.7578Zm1.4013-2.3361a.8614.8614,0,0,1,.4542.0124.3048.3048,0,0,1,.2059.2278.9032.9032,0,0,1-.1478.8042c-.5122.6375-2.1382.9978-4.4056.9972a13.063,13.063,0,0,1,3.9238-2.0558Z" transform="translate(-56.1108 -87.5231)"/>
                  <path class="cls-3" d="M308.5781,402.9156l.0818-.0382c1.1055-.7278,3.0981-3.2649,2.7236-4.361a.8813.8813,0,0,0-.9911-.5216,1.705,1.705,0,0,0-1.2581.5875c-1.0789,1.2382-.8646,3.9664-.8624,4.0775a.2593.2593,0,0,0,.1.2148A.237.237,0,0,0,308.5781,402.9156Zm1.6747-4.4195.1328-.0621c.44-.0183.4912.1446.5048.2.2347.6629-1.0855,2.6121-2.1857,3.512a5.4212,5.4212,0,0,1,.76-3.2827,1.2321,1.2321,0,0,1,.8082-.3772Z" transform="translate(-56.1108 -87.5231)"/>
                </g>
                <path class="cls-2" d="M303.0432,398.2839l-8.8334,2.105a.7905.7905,0,0,0-.6265.8558l.2854,12.7806a1.6372,1.6372,0,0,0,1.8443,1.3993,1.69,1.69,0,0,0,.1843-.0362c3.8258-.9535,5.6316-1.6031,10.4974-2.7249,2.9814-.6862,12.4284-1.3985,16.2977-3.1215s2.3621-5.6455.5968-5.2749c-5.6764,1.221-12.9691-1.2089-17.1119-4.9076C305.6153,399.084,303.6493,398.1269,303.0432,398.2839Z" transform="translate(-56.1108 -87.5231)"/>
                <polygon class="cls-10" points="245.435 291.584 246.731 303.595 236.772 305.06 235.465 293.052 245.435 291.584"/>
                <path class="cls-3" d="M306.8663,386.1753l-18.4292,3.441S279.4879,376.84,277.8,367.7677c-1.758-9.4467.12-41.6091,0-42.0356-5.2128-17.5974-19.3751-63.2-26.2145-79.9808-3.7872-9.3-6.4454-15.5606-6.4454-15.5606l1.9149-.43,15.0429-6.1624,10.9619,2.0665s33.3133,67.3623,36.805,92.7026C312.4712,337.2868,306.8663,386.1753,306.8663,386.1753Z" transform="translate(-56.1108 -87.5231)"/>
                <path class="cls-11" d="M306.8663,386.1753l-18.4292,3.441S279.4879,376.84,277.8,367.7677c-1.758-9.4467.12-41.6091,0-42.0356-5.2128-17.5974-19.3751-63.2-26.2145-79.9808-3.7872-9.3-6.4454-15.5606-6.4454-15.5606l1.9149-.43,15.0429-6.1624,10.9619,2.0665s33.3133,67.3623,36.805,92.7026C312.4712,337.2868,306.8663,386.1753,306.8663,386.1753Z" transform="translate(-56.1108 -87.5231)"/>
                <path class="cls-12" d="M273.4579,310.4911c-5.2128-17.5974-15.7274-44.2924-22.5667-61.0728l-4.5306-15.99-.8715-3.0763,1.5862,2.9055,17.8539,39.5455C272.8067,287.9464,273.5784,310.9176,273.4579,310.4911Z" transform="translate(-56.1108 -87.5231)"/>
              </g>
              <g>
                <polygon class="cls-9" points="136.462 310.853 145.338 314.593 154.812 294.265 145.935 290.526 136.462 310.853"/>
                <g>
                  <path class="cls-3" d="M207.2326,406.3711a3.662,3.662,0,0,0,2.3612.5329,1.2743,1.2743,0,0,0,.8647-.809.7348.7348,0,0,0-.0671-.718c-.7589-1.1192-5.0891-1.1052-5.5743-1.102a.248.248,0,0,0-.2179.1549.2271.2271,0,0,0,.0832.2477A16.7063,16.7063,0,0,0,207.2326,406.3711Zm2.4023-1.0117a.8239.8239,0,0,1,.3438.2663.2917.2917,0,0,1,.03.2923.8645.8645,0,0,1-.5687.5374c-.7557.2027-2.2149-.4381-3.9653-1.72a12.4991,12.4991,0,0,1,4.1917.63Z" transform="translate(-56.1108 -87.5231)"/>
                  <path class="cls-3" d="M204.7185,404.7179l.0847.0168c1.2649.0628,4.2375-.77,4.5678-1.8279a.8432.8432,0,0,0-.47-.9629,1.6311,1.6311,0,0,0-1.3034-.2575c-1.5329.3463-2.9095,2.5739-2.9706,2.6609a.2482.2482,0,0,0-.0439.2226A.2267.2267,0,0,0,204.7185,404.7179Zm3.791-2.4659.1377.0271c.35.2346.2975.3893.2765.44-.1935.6445-2.3146,1.4034-3.6727,1.4763a5.1875,5.1875,0,0,1,2.4425-2.1049,1.1789,1.1789,0,0,1,.8372.1656Z" transform="translate(-56.1108 -87.5231)"/>
                </g>
                <path class="cls-2" d="M203.0627,398.0133l-8.01-3.3674a.7564.7564,0,0,0-.9675.3067l-7.0032,10.0295a1.5666,1.5666,0,0,0,.633,2.1229,1.6161,1.6161,0,0,0,.1628.0762c3.493,1.4262,5.2544,1.9452,9.6454,3.8293,2.69,1.1552,10.3868,5.9448,14.3483,6.8014s5.0147-3.024,3.4423-3.7356c-5.0731-2.2656-9.3306-8.2637-10.4388-13.4611C204.5964,400.0848,203.6194,398.2346,203.0627,398.0133Z" transform="translate(-56.1108 -87.5231)"/>
                <polygon class="cls-10" points="155.201 294.505 150.064 304.861 141.277 300.917 146.403 290.557 155.201 294.505"/>
                <path class="cls-3" d="M213.16,393.3142l-17.68-9.4248s-3.39-12.587,0-20.6164c6.524-15.4521,23.4969-38.1709,23.6117-38.599,4.5288-17.7857,12.4736-66.4924,15.1868-84.4087,1.5068-9.9282,2.3923-12.07,2.3923-12.07l1.865.6109,27.0526.0537s5.1037,40.9675-14.4558,104.3966c-4.8668,15.7822-13.02,28.9039-26.4352,46.6553A169.4594,169.4594,0,0,1,213.16,393.3142Z" transform="translate(-56.1108 -87.5231)"/>
                <path class="cls-11" d="M213.16,393.3142l-17.68-9.4248s-3.39-12.587,0-20.6164c6.524-15.4521,23.4969-38.1709,23.6117-38.599,4.5288-17.7857,12.4736-66.4924,15.1868-84.4087,1.5068-9.9282,2.3923-12.07,2.3923-12.07l1.865.6109,27.0526.0537s5.1037,40.9675-14.4558,104.3966c-4.8668,15.7822-13.02,28.9039-26.4352,46.6553A169.4594,169.4594,0,0,1,213.16,393.3142Z" transform="translate(-56.1108 -87.5231)"/>
              </g>
              <g>
                <g>
                  <path class="cls-9" d="M289.5556,195.3862a16.4543,16.4543,0,0,1,3.9506-8.76c.5581-.5784,2.6674-1.4576,3.8623-2.2356,5.8743-3.8542,17.63-8.6611,17.63-8.6611l3.6277,3.1635s-7.1609,6.9216-11.4212,10.2412c-.8371.6519-1.8069,1.4437-2.8287,2.2807-1.8521,1.5459-10.575,7.2993-12.24,8.7407Z" transform="translate(-56.1108 -87.5231)"/>
                  <path class="cls-9" d="M325.342,173.94l-6.71,4.9582-3.7648-2.7719a39.1406,39.1406,0,0,1,3.1148-3.4733,3.5527,3.5527,0,0,0,1.0756-2.5438,8.6544,8.6544,0,0,1,1.0389-4.4512.5441.5441,0,0,1,.0492-.0786,3.1069,3.1069,0,0,1,5.5437,1.0025l.9687,3.5773A3.548,3.548,0,0,1,325.342,173.94Z" transform="translate(-56.1108 -87.5231)"/>
                </g>
                <path class="cls-2" d="M291.7023,196.7268l-1.7694,1.6218c-.55-.4423-1.4252-1.15-2.5262-2.0642-8.62-7.1558-30.23-24.5141-21.6148-29.4685,7.3839-4.2463,15.2257,8.7482,19.1378,12.65a33.49,33.49,0,0,1,4.7378,6.4776C291.5055,189.2564,292.8719,193.2668,291.7023,196.7268Z" transform="translate(-56.1108 -87.5231)"/>
                <path class="cls-2" d="M289.663,184.3908a28.9225,28.9225,0,0,0-7.6363,8.3209,17.3485,17.3485,0,0,0,9.4869,10.7359,38.0751,38.0751,0,0,0,3.1261-18.0888C293.08,185.0225,291.2232,184.727,289.663,184.3908Z" transform="translate(-56.1108 -87.5231)"/>
                <path class="cls-2" d="M242.2076,165.8052c-3.0837.991-6.614.1978-8.5933,2.7617s-2.5739,5.9477-2.5708,9.1867a59.2457,59.2457,0,0,0,2.0585,13.3244q1.863,7.9781,3.7258,15.956c.8491,3.6359-.0441,20.5418.8616,20.8252,0,0,28.2692-.5539,35.3566-1.5474,0,0,.6156-17.3788,1.1845-23.2978.1262-1.3133,2.12-6.8893,2.354-8.29,1.1043-6.6025-1.06-11.2582-3.3464-17.55,0,0-5.0064-10.0786-7.45-10.3544C261.44,166.3293,250.8009,163.0436,242.2076,165.8052Z" transform="translate(-56.1108 -87.5231)"/>
                <path class="cls-2" d="M241.0177,174.1448c-.1-.5868-5.1167-10.7224-9.9252-3.6377-6.6925,9.86-7.1441,22.24-7.1441,22.24s-4.1134,12.0381-1.2475,14.6668,5.9574,4.3208,7.96,2.83a12.8879,12.8879,0,0,0,3.3013-4.4695S242.7759,184.46,241.0177,174.1448Z" transform="translate(-56.1108 -87.5231)"/>
                <path class="cls-2" d="M240.6948,162.0464a4.3029,4.3029,0,0,0,.4943,6.7872,5.6782,5.6782,0,0,0,7.6557,6.7978c-.8476,1.5185.1076,3.5244,1.5708,4.4639a12.0043,12.0043,0,0,0,4.9942,1.3423,8.3044,8.3044,0,0,1,4.7956,1.81l5.3452-7.6906a6.5352,6.5352,0,0,0,1.4672-3.2833c.054-1.2146-.87-2.5543-2.082-2.4648a3.5439,3.5439,0,0,0-4.7823-5.2118,2.7134,2.7134,0,0,0-1.221-2.7224,6.2547,6.2547,0,0,0-3-.9129Z" transform="translate(-56.1108 -87.5231)"/>
                <path class="cls-9" d="M243.9016,148.9952c1.3905,5.1032,3.0785,14.5121-.2958,18.2308A48.8668,48.8668,0,0,1,259.94,178.721a7.8838,7.8838,0,0,0,1.8626-9.0357,7.6905,7.6905,0,0,0-4.2867-4.2211c-3.7162-1.5795-3.7481-5.2376-3.13-8.7448Z" transform="translate(-56.1108 -87.5231)"/>
                <g>
                  <path class="cls-12" d="M245.9819,157.6851l3.5115.9529a11.3251,11.3251,0,0,0,4.6173.2743h0a7.3365,7.3365,0,0,0,.3263,3.2094,6.516,6.516,0,0,1-6.9345-1.4712A11.2009,11.2009,0,0,1,245.9819,157.6851Z" transform="translate(-56.1108 -87.5231)"/>
                  <g>
                    <g>
                      <path class="cls-9" d="M237.0868,144.6506c3.7173,7.8439,5.1232,11.2407,10.8453,13.7381,8.6212,3.774,17.4156-2.5266,16.1134-11.3228-1.1713-7.9107-7.0565-19.4111-16.2055-19.4522a11.8388,11.8388,0,0,0-10.7532,17.0369Z" transform="translate(-56.1108 -87.5231)"/>
                      <path class="cls-2" d="M241.1709,129.6706c-2.7085-1.2646-6.0743-.2335-8.329,1.75-2.2948,2.0192-3.6916,4.843-5.0312,7.59a20.0232,20.0232,0,0,0-1.8,4.6326,6.7393,6.7393,0,0,0,.62,4.828,5.13,5.13,0,0,0,4.0315,2.4036,2.7569,2.7569,0,0,1,2.3251,1.6117,5.3974,5.3974,0,0,1,.0155,2.5634,5.3792,5.3792,0,0,0,.0115,2.4814,3.6886,3.6886,0,0,0,3.2263,2.2553,10.84,10.84,0,0,0,4.086-.662,2.3918,2.3918,0,0,1,2.3494.4818,1.8446,1.8446,0,0,1,.4.517,1.1012,1.1012,0,0,0,1.9575-.1568c1.21-2.8754-.5511-7.4722-3.1742-10.9805-1.3921-1.8618-1.3163-1.3871-1.863-3.6466a8.5318,8.5318,0,0,1,1.0759-5.5839c1.1235-2.3228,2.5681-4.5893,2.1221-7.3621A3.6589,3.6589,0,0,0,241.1709,129.6706Z" transform="translate(-56.1108 -87.5231)"/>
                      <path class="cls-9" d="M237.3223,152.6754a6.7972,6.7972,0,0,0,4.7356,2.1382c2.3877.0518,2.994-2.2261,1.8412-4.1689-1.0407-1.7524-3.5371-3.8825-5.6991-3.0362S235.8183,151.04,237.3223,152.6754Z" transform="translate(-56.1108 -87.5231)"/>
                      <g>
                        <path class="cls-2" d="M252.0335,143.255c.2757.6869.822,1.05,1.254.8734s.5383-.8293.2988-1.4954-.82-1.043-1.2539-.8734S251.7746,142.6017,252.0335,143.255Z" transform="translate(-56.1108 -87.5231)"/>
                        <path class="cls-2" d="M259.3524,140.1046c.2685.6888.8219,1.05,1.2468.8754s.5385-.8293.2989-1.4955-.82-1.043-1.2468-.8753S259.0864,139.4531,259.3524,140.1046Z" transform="translate(-56.1108 -87.5231)"/>
                        <path class="cls-2" d="M259.4626,138.7283l1.39-1.088S260.5525,139.1892,259.4626,138.7283Z" transform="translate(-56.1108 -87.5231)"/>
                        <path class="cls-13" d="M257.4519,141.5738c1.6994,1.6773,2.9777,1.9845,4.8181,3.136a2.1575,2.1575,0,0,1-1.5911,2.009Z" transform="translate(-56.1108 -87.5231)"/>
                        <path class="cls-2" d="M259.9027,149.9209a6.1328,6.1328,0,0,0,.9177-.4337.1971.1971,0,0,0,.081-.2665l-.0055-.01a.217.217,0,0,0-.278-.0852,5.5732,5.5732,0,0,1-5.0774.2681.21.21,0,0,0-.1972.3708A5.9084,5.9084,0,0,0,259.9027,149.9209Z" transform="translate(-56.1108 -87.5231)"/>
                        <path class="cls-2" d="M251.76,137.81a.4366.4366,0,0,1-.32.3968c-1.9184.5692-2.7689,3.003-2.7732,3.0229a.4318.4318,0,0,1-.8189-.2741c.0743-.0921,1.0025-2.8837,3.34-3.5822a.4367.4367,0,0,1,.5361.2916A.3276.3276,0,0,1,251.76,137.81Z" transform="translate(-56.1108 -87.5231)"/>
                        <path class="cls-2" d="M260.6087,136.6329a.4366.4366,0,0,1-.5082-.0366c-1.561-1.2521-4.0456-.564-4.0644-.5562a.4317.4317,0,0,1-.2415-.829c.1181.0085,2.941-.82,4.8473.7036a.4367.4367,0,0,1,.0659.6067A.3294.3294,0,0,1,260.6087,136.6329Z" transform="translate(-56.1108 -87.5231)"/>
                        <path class="cls-2" d="M252.1579,141.8749l1.3915-1.0809S253.2336,142.34,252.1579,141.8749Z" transform="translate(-56.1108 -87.5231)"/>
                      </g>
                    </g>
                    <path class="cls-2" d="M241.7675,128.3608a7.2617,7.2617,0,0,0-5.4416,3.2609c-.7947,1.2369-1.0747,3.1175.101,4a3.7421,3.7421,0,0,0,1.9605.5479c3.044.267,6.796-2.084,6.796-2.084-1.1731-4.97,9.2536-8.8155,14.3938-1.1171,1.51,2.2618,1.1017,3.9046,3.6126,4.95,1.1817.4919,2.74.3563,3.4966,1.3887,1.2561,1.7131-1.1581,4.6144.3752,6.0848,1.0494,1.0061,3.427.6216,3.5735,2.068.0689.68-.3761,1.6638.2777,1.8626.3618.11.6949-.2214.929-.5185a6.0914,6.0914,0,0,0,1.341-2.3613,2.0832,2.0832,0,0,0-.9553-2.3461c-.6387-.291-2.3279.0339-2.2134.7263a21.5612,21.5612,0,0,1-.2567-4.8c.2792-1.345,1.5637-2.5112,1.1743-3.8287-.4155-1.4057-2.0856-1.9667-3.5355-2.1818s-3.0952-.3909-3.9862-1.5548c-.995-1.3-.5425-3.1573-.8621-4.7631a6.5911,6.5911,0,0,0-4.0206-4.461C252.7315,120.72,243.7639,121.0769,241.7675,128.3608Z" transform="translate(-56.1108 -87.5231)"/>
                  </g>
                </g>
                <g>
                  <g>
                    <g>
                      <path class="cls-3" d="M258.2354,155.0442l-19.9945,10.0447a14.2328,14.2328,0,0,0-6.8621,17.9171l9.6433,24.593a14.2537,14.2537,0,0,0,17.2171,8.4911l21.5019-6.2005a14.2333,14.2333,0,0,0,9.3095-18.8751L277.9,162.5773A14.2531,14.2531,0,0,0,258.2354,155.0442ZM254.9307,197.28a8.669,8.669,0,1,1,4.907-11.231A8.6762,8.6762,0,0,1,254.9307,197.28Z" transform="translate(-56.1108 -87.5231)"/>
                      <path class="cls-3" d="M258.2354,155.0442l-19.9945,10.0447a14.2328,14.2328,0,0,0-6.8621,17.9171l9.6433,24.593a14.2537,14.2537,0,0,0,17.2171,8.4911l21.5019-6.2005a14.2333,14.2333,0,0,0,9.3095-18.8751L277.9,162.5773A14.2531,14.2531,0,0,0,258.2354,155.0442ZM254.9307,197.28a8.669,8.669,0,1,1,4.907-11.231A8.6762,8.6762,0,0,1,254.9307,197.28Z" transform="translate(-56.1108 -87.5231)"/>
                      <path class="cls-14" d="M289.0541,191.0181l-11.1565-28.4364a14.2428,14.2428,0,0,0-19.6588-7.5392l-5.8091,2.9194-3.9022,1.956-10.2815,5.17a14.24,14.24,0,0,0-6.871,17.919L241.0177,207.6a14.2658,14.2658,0,0,0,17.2211,8.4926l21.5069-6.2024a14.176,14.176,0,0,0,4.7081-2.3787,13.8131,13.8131,0,0,0,2.7621-2.8013A14.2076,14.2076,0,0,0,289.0541,191.0181ZM254.9264,197.28a8.6666,8.6666,0,1,1,4.9147-11.235A8.6691,8.6691,0,0,1,254.9264,197.28Z" transform="translate(-56.1108 -87.5231)"/>
                      <path class="cls-3" d="M258.4424,156.9155l-18.7528,9.42a13.35,13.35,0,0,0-6.4352,16.8047l9.0439,23.0643a13.37,13.37,0,0,0,16.1476,7.9647l20.1659-5.8161a13.35,13.35,0,0,0,8.7318-17.7023L276.8855,163.98A13.3673,13.3673,0,0,0,258.4424,156.9155Zm-14.75,35.4534a8.669,8.669,0,1,1,11.238,4.911A8.6632,8.6632,0,0,1,243.6927,192.3689Z" transform="translate(-56.1108 -87.5231)"/>
                      <path class="cls-15" d="M258.4424,156.9155l-18.7528,9.42a13.35,13.35,0,0,0-6.4352,16.8047l9.0439,23.0643a13.37,13.37,0,0,0,16.1476,7.9647l20.1659-5.8161a13.35,13.35,0,0,0,8.7318-17.7023L276.8855,163.98A13.3673,13.3673,0,0,0,258.4424,156.9155Zm-14.75,35.4534a8.669,8.669,0,1,1,11.238,4.911A8.6632,8.6632,0,0,1,243.6927,192.3689Z" transform="translate(-56.1108 -87.5231)"/>
                      <path class="cls-3" d="M351.6185,148.0215l-.5725,1.0466-.318.5805-.9049,1.6529.3789,4.2312a1.3106,1.3106,0,0,1-.8316,1.3429l-7.9042,3.0941a1.3125,1.3125,0,0,1-1.1211-.0763,1.2773,1.2773,0,0,1-.3-.2275l-4.4673-4.5427-.0122-.0126-6.3539,2.4873.9208,2.348-6.3539,2.4873,1.5162,3.8668-4.6785,1.8314a1.4075,1.4075,0,0,1-1.1611-.0607,1.3763,1.3763,0,0,1-.3229-.2271l-2.6961-2.5362-6.3539,2.4872,1.5162,3.8668-6.68,2.6151,1.5226,3.883a1.2327,1.2327,0,0,1-.6984,1.5981L287.4451,186.92l-7.94-20.2484,66.1854-25.9084,1.0354.5312,3.3556,1.7225A3.6534,3.6534,0,0,1,351.6185,148.0215Z" transform="translate(-56.1108 -87.5231)"/>
                      <g class="cls-16">
                        <path class="cls-5" d="M351.6185,148.0215l-.5725,1.0466-.318.5805-.9049,1.6529.3789,4.2312a1.3106,1.3106,0,0,1-.8316,1.3429l-7.9042,3.0941a1.3125,1.3125,0,0,1-1.1211-.0763,1.2773,1.2773,0,0,1-.3-.2275l-4.4673-4.5427-.0122-.0126-6.3539,2.4873.9208,2.348-6.3539,2.4873,1.5162,3.8668-4.6785,1.8314a1.4075,1.4075,0,0,1-1.1611-.0607,1.3763,1.3763,0,0,1-.3229-.2271l-2.6961-2.5362-6.3539,2.4872,1.5162,3.8668-6.68,2.6151,1.5226,3.883a1.2327,1.2327,0,0,1-.6984,1.5981L287.4451,186.92l-7.94-20.2484,66.1854-25.9084,1.0354.5312,3.3556,1.7225A3.6534,3.6534,0,0,1,351.6185,148.0215Z" transform="translate(-56.1108 -87.5231)"/>
                      </g>
                    </g>
                    <path class="cls-3" d="M351.3584,145.7164l-70.7607,27.7-2.0624-5.197,67.4674-26.41,3.3556,1.7225C350.6359,144.1868,351.37,144.7957,351.3584,145.7164Z" transform="translate(-56.1108 -87.5231)"/>
                    <path class="cls-17" d="M351.3584,145.7164l-70.7607,27.7-2.0624-5.197,67.4674-26.41,3.3556,1.7225C350.6359,144.1868,351.37,144.7957,351.3584,145.7164Z" transform="translate(-56.1108 -87.5231)"/>
                    <path class="cls-3" d="M349.9613,149.618l-.6846,1.5375a.16.16,0,0,0-.0132.08l.383,4.1887a1.3256,1.3256,0,0,1-.0351.448.1587.1587,0,0,1-.0969.1065l-8.5928,3.3823a.1578.1578,0,0,1-.1417-.0111,1.2657,1.2657,0,0,1-.2323-.1868l-4.915-4.9385a.1612.1612,0,0,0-.1734-.0363l-6.9758,2.7459a.161.161,0,0,0-.0909.2089l.83,2.1049a.1609.1609,0,0,1-.0908.2089l-5.9493,2.3418a.161.161,0,0,0-.0908.2089l1.433,3.6345a.1611.1611,0,0,1-.0908.209l-4.3648,1.7181a.1587.1587,0,0,1-.1367-.008,1.4079,1.4079,0,0,1-.2569-.1909l-3.1905-2.94a.1614.1614,0,0,0-.1684-.0315l-6.93,2.728a.1611.1611,0,0,0-.0908.209l1.4681,3.7236a.1609.1609,0,0,1-.0908.2089l-26.6081,10.4707a.1613.1613,0,0,1-.2089-.09L281.2,174.9835a.1611.1611,0,0,1,.0906-.2095l69.336-27.29a.1612.1612,0,0,1,.2058.2167Z" transform="translate(-56.1108 -87.5231)"/>
                    <path class="cls-17" d="M349.9613,149.618l-.6846,1.5375a.16.16,0,0,0-.0132.08l.383,4.1887a1.3256,1.3256,0,0,1-.0351.448.1587.1587,0,0,1-.0969.1065l-8.5928,3.3823a.1578.1578,0,0,1-.1417-.0111,1.2657,1.2657,0,0,1-.2323-.1868l-4.915-4.9385a.1612.1612,0,0,0-.1734-.0363l-6.9758,2.7459a.161.161,0,0,0-.0909.2089l.83,2.1049a.1609.1609,0,0,1-.0908.2089l-5.9493,2.3418a.161.161,0,0,0-.0908.2089l1.433,3.6345a.1611.1611,0,0,1-.0908.209l-4.3648,1.7181a.1587.1587,0,0,1-.1367-.008,1.4079,1.4079,0,0,1-.2569-.1909l-3.1905-2.94a.1614.1614,0,0,0-.1684-.0315l-6.93,2.728a.1611.1611,0,0,0-.0908.209l1.4681,3.7236a.1609.1609,0,0,1-.0908.2089l-26.6081,10.4707a.1613.1613,0,0,1-.2089-.09L281.2,174.9835a.1611.1611,0,0,1,.0906-.2095l69.336-27.29a.1612.1612,0,0,1,.2058.2167Z" transform="translate(-56.1108 -87.5231)"/>
                    <line class="cls-15" x1="254.5618" y1="83.7448" x2="227.9537" y2="94.2155"/>
                  </g>
                  <path class="cls-11" d="M248.0726,178.9762a10.8746,10.8746,0,1,0,14.0963,6.16A10.8674,10.8674,0,0,0,248.0726,178.9762Zm6.8581,18.3037a8.669,8.669,0,1,1,4.907-11.231A8.6762,8.6762,0,0,1,254.9307,197.28Z" transform="translate(-56.1108 -87.5231)"/>
                </g>
                <g>
                  <path class="cls-14" d="M287.2128,204.7006a13.811,13.811,0,0,1-2.7621,2.8014l-35.9263-47.594-.03-.0394s3.165-1.5923,3.8825-2.0641a.368.368,0,0,0,.0492.1475C253.9992,161.3234,282.2391,197.9871,287.2128,204.7006Z" transform="translate(-56.1108 -87.5231)"/>
                  <path class="cls-14" d="M282.0231,209.0059c-.2263.1081-10.6945,3.2928-10.6945,3.2928l-11.6674-15.4518a10.8734,10.8734,0,0,0-11.5889-17.88,9.6012,9.6012,0,0,0-1.396.6684l-10.3209-13.6727s9.0726-4.3249,10.0752-4.954C246.696,162.9256,282.0231,208.6029,282.0231,209.0059Z" transform="translate(-56.1108 -87.5231)"/>
                </g>
              </g>
            </g>
            <path class="cls-2" d="M239.1883,133.9406a5.94,5.94,0,0,0,2.0437,9.2088c.8538.3967,1.7936.5869,2.6383,1.0026a2.8322,2.8322,0,0,1,1.7179,2.0858c.0992,1.0353-.6644,2.0018-.5923,3.0393a3.4674,3.4674,0,0,0,1.5586,2.2907,6.28,6.28,0,0,1,2.0014,1.9985,1.7042,1.7042,0,0,1-.7739,2.3788,1.2819,1.2819,0,0,0-.0212,1.26.812.812,0,0,0,.9772.1218,5.0794,5.0794,0,0,0,2.3911-4.1616,4.4045,4.4045,0,0,0-2.54-3.9524,2.335,2.335,0,0,1,.1668-1.8211l1.3728-3.4346a1.975,1.975,0,0,0-.2866-1.6432,3.0547,3.0547,0,0,0-1.2152-.7691l-2.9477-1.2635c-1.1132-.4772-4.4152-4.9029-.4953-6.195a3.052,3.052,0,0,0-2.624-1.7176A3.93,3.93,0,0,0,239.1883,133.9406Z" transform="translate(-56.1108 -87.5231)"/>
          </g>
          <path class="cls-2" d="M244.5382,129.18l-.2937,3.4907c.9766-1.6041,2.7873-4.7131,2.7249-4.5918C246.2006,128.4961,245.307,128.7624,244.5382,129.18Z" transform="translate(-56.1108 -87.5231)"/>
          <path class="cls-2" d="M245.8607,131.0924l4.0972-3.7882a2.9559,2.9559,0,0,0-3.1047.7157C246.8759,127.9335,246.244,129.8744,245.8607,131.0924Z" transform="translate(-56.1108 -87.5231)"/>
        </g>
        <path class="cls-2" d="M237.5335,225.7c-5.334,6.6182-3.5588,11.6944-10.92,23.4109,9.2843,6.8816,19.4626,8.0219,32.1171,7.0387,1.4954-2.6494,2.2514-5.4143,3.7468-8.0636,2.1446,2.6611,3.8667,4.8982,6.0112,7.5594,6.63-1.0386,14.5072-2.9024,19.7505-6.2806-4.63-5.31-7.5051-11.9432-10.47-17.7982-1.39-2.745-.8079-3.9013-4.4959-7.5011-11.7484.5418-23.399.8291-35.1474,1.3709C238.4358,225.4526,237.2234,225.6843,237.5335,225.7Z" transform="translate(-56.1108 -87.5231)"/>
        <g>
          <g>
            <path class="cls-3" d="M238.9949,224.5935l-.7365,3.0892c-.1071.2427.18.4728.5755.4511l32.3829-1.433c.31.005.5574-.1789.57-.3667l.1722-3.07c.0033-.2065-.2663-.38-.6051-.3575l-31.8185,1.4046A.6112.6112,0,0,0,238.9949,224.5935Z" transform="translate(-56.1108 -87.5231)"/>
            <path class="cls-3" d="M238.9949,224.5935l-.7365,3.0892c-.1071.2427.18.4728.5755.4511l32.3829-1.433c.31.005.5574-.1789.57-.3667l.1722-3.07c.0033-.2065-.2663-.38-.6051-.3575l-31.8185,1.4046A.6112.6112,0,0,0,238.9949,224.5935Z" transform="translate(-56.1108 -87.5231)"/>
          </g>
          <g>
            <path class="cls-2" d="M246.1273,228.138l-.94.041c-.1786-.0028-.3276-.08-.3164-.1929l.2529-3.99c.0017-.1129.1632-.2135.3514-.22l.9405-.0506c.1786.003.3276.0806.3163.2026l-.2528,3.9805C246.4676,228.0214,246.3061,228.1317,246.1273,228.138Z" transform="translate(-56.1108 -87.5231)"/>
            <path class="cls-2" d="M269.5083,227.1305l-.9405.0411c-.1786-.0029-.3276-.0805-.3164-.1931l.2529-3.9806c.0019-.1221.1633-.2229.342-.2295l.94-.041c.1787.0029.3277.0805.3165.1932l-.2529,3.9805C269.8484,227.0232,269.6964,227.1242,269.5083,227.1305Z" transform="translate(-56.1108 -87.5231)"/>
          </g>
        </g>
      </g>
      <g>
        <g>
          <path class="cls-9" d="M250.309,208.7188c.0608.2949,2.5759,4.2958,4.5469,4.0185l.0493-.0069a1.6077,1.6077,0,0,1,1.5016.6123c.7922,1.0313,1.27,1.6216,1.805,2.299a3.0185,3.0185,0,0,0,3.6446.8613c.3757-.1746.7485-.3672,1.1181-.5633a3.0172,3.0172,0,0,0,1.5119-3.3887,16.4558,16.4558,0,0,0-1.6824-4.2073,2.9831,2.9831,0,0,0-.9994-1.1644,24.7351,24.7351,0,0,0-6.471-1.519C253.58,205.7158,251.9151,208.0127,250.309,208.7188Z" transform="translate(-56.1108 -87.5231)"/>
          <path class="cls-9" d="M255.3777,205.5294s-26.5823-8.0493-32.3165-2.69c-3.3708,3.1507-1.7793,6.1262.1053,8.0438,1.4021,1.4268,4.4561,1.0761,6.4544.9829l20.9391-2.0543Z" transform="translate(-56.1108 -87.5231)"/>
        </g>
        <path class="cls-2" d="M240.1028,201.8524a4.3861,4.3861,0,0,0-2.5517-3.2789,12.9452,12.9452,0,0,0-4.1942-1.0176l-10.02-1.27a12.8918,12.8918,0,0,0-2.8631,7.8251,12.0286,12.0286,0,0,0,2.8592,7.5165c1.5982-3.09,3.7057-6.2708,6.8273-7.8057S236.68,201.2317,240.1028,201.8524Z" transform="translate(-56.1108 -87.5231)"/>
      </g>
    </g>
    <path class="cls-14" d="M233.25,153.3c-.03-.06-.03-.09,0-.1C233.46,153.14,233.43,153.18,233.25,153.3Z" transform="translate(-56.1108 -87.5231)"/>
  </g>
  <g id="Speech_Bubble" data-name="Speech Bubble">
    <g>
      <path class="cls-3" d="M299.2886,110.2642l7.4064,13.7316,30.2182-25.66a.2777.2777,0,0,0-.3327-.4434l-28.328,18.698-4.3667-8.5174Z" transform="translate(-56.1108 -87.5231)"/>
      <path class="cls-18" d="M346.9654,110.3285c0,12.2377-12.8471,22.1555-28.6922,22.1555a34.4823,34.4823,0,0,1-16.3561-3.9612l-16.8464,7.323,10.6342-11.8446a19.111,19.111,0,0,1-6.1237-13.6727c0-12.2376,12.8471-22.1554,28.692-22.1554S346.9654,98.0909,346.9654,110.3285Z" transform="translate(-56.1108 -87.5231)"/>
    </g>
  </g>
</svg>
